<?xml version="1.0" encoding="UTF-8" standalone="no"?>
<svg xmlns="http://www.w3.org/2000/svg" width="700" height="700" viewBox="0 0 700 700">
  <g id="outLine">
    <path
       d="M50,50 l0,600 l600,0 l0,-600 z"
       fill="none"
       stroke="navy"
       stroke-opacity="0.6"
       stroke-width="0.3em"
       stroke-dasharray="10 20 15 30"
       id="path1008" />
    <path
       d="M350,50 l0,600 m-300,-300 l600,0"
       fill="none"
       stroke="navy"
       stroke-opacity="0.3"
       stroke-width="0.3em"
       stroke-dasharray="5 10"
       id="path1010" />
  </g>
  <g id="consonantsBlock">
    <path
       d="M50,50 l400,0 l0,200 l-200,200 l-200,0 z"
       fill="none"
       stroke="navy"
       stroke-opacity="0.6"
       stroke-width="0.3em"
       stroke-dasharray="10 20 15 30"
       id="path1013" />
  </g>
  <g id="bowelsBlock">
    <path
       d="M50,50 m400,200 l200,0 l0,400 l-400,0 l0,-200 z"
       fill="none"
       stroke="navy"
       stroke-opacity="0.6"
       stroke-width="0.3em"
       stroke-dasharray="10 20 15 30"
       id="path1016" />
  </g>
  <g id="diphthongsBlock">
    <path
       d="M50,50 m400,0 l0,200 l200,0 l0,-200 z"
       fill="none"
       stroke="navy"
       stroke-opacity="0.6"
       stroke-width="0.3em"
       stroke-dasharray="10 20 15 30"
       id="path1019" />
    <path
       d="M150,450 l0,200 m-100,-100 l200,0"
       fill="none"
       stroke="navy"
       stroke-opacity="0.3"
       stroke-width="0.3em"
       stroke-dasharray="5 10"
       id="path1021" />
  </g>
  <g
     id="longVowsBlock">
    <path
       d="M50,50 m0,400 l0,200 l200,0 l0,-200 z"
       id="path1024"
       stroke-dasharray="10 20 15 30"
       stroke-opacity="0.6"
       stroke-width="0.3em"
       stroke="navy"
       fill="none" />
    <path
       d="M550,50 l0,200 m-100,-100 l200,0"
       id="path1026"
       stroke-dasharray="5 10"
       stroke-opacity="0.3"
       stroke-width="0.3em"
       stroke="navy"
       fill="none" />
  </g>
  <g
     id="strokePoints">
    <circle
       cx="50"
       cy="350"
       r="0.6em"
       fill="black"
       id="circle1029" />
    <circle
       cx="650"
       cy="350"
       r="0.6em"
       fill="black"
       id="circle1031" />
    <circle
       cx="150"
       cy="450"
       r="0.6em"
       fill="black"
       id="circle1033" />
    <circle
       cx="550"
       cy="250"
       r="0.6em"
       fill="black"
       id="circle1035" />
  </g>
  <g
     aria-label="子音ブロック"
     transform="matrix(1.4002413,0,0,1.4002413,-28.295729,-28.376457)"
     style="font-style:normal;font-weight:normal;font-size:40px;line-height:1.25;font-family:sans-serif;letter-spacing:0px;word-spacing:0px;fill:#000000;fill-opacity:1;stroke:none"
     id="flowRoot1589">
    <path
       d="m 89.613281,129.81641 v -2.96875 h 22.812499 l 0.625,-0.46875 2.96875,2.96875 -0.9375,0.46875 q -5.625,5 -10,7.5 v 3.59375 h 15.625 v 3.4375 h -15.625 v 12.1875 q 0,2.5 -2.5,2.5 h -4.531249 l -0.78125,-3.4375 h 3.593749 q 0.625,0 0.625,-0.625 v -10.625 H 85.394531 v -3.4375 h 16.093749 v -7.03125 l 2.96875,0.46875 q 3.28125,-2.03125 5.78125,-4.53125 z"
       style=""
       id="path1670" />
    <path
       d="m 150.86328,154.97266 v -3.75 h -15.78125 v 3.75 z m -11.5625,-18.59375 h 7.34375 l 2.03125,-5.78125 h -11.5625 z m 21.25,0 v 2.96875 h -35.46875 v -2.96875 h 11.09375 l -2.5,-5.78125 h -5 v -2.96875 h 12.65625 v -3.75 h 2.96875 q 1.25,0.15625 0.15625,0.9375 v 2.8125 h 12.8125 v 2.96875 h -5 l -2.65625,5.78125 z m -9.6875,11.875 v -3.28125 h -15.78125 v 3.28125 z m 3.125,10.9375 h -3.125 v -1.25 h -15.78125 v 2.03125 h -3.125 v -17.96875 h 22.03125 z"
       style=""
       id="path1672" />
    <path
       d="m 169.76953,133.25391 v -3.4375 h 23.59375 l 2.34375,-0.46875 1.71875,1.5625 q -0.625,20.625 -21.875,26.5625 l -2.8125,-3.4375 q 19.53125,-4.375 20.46875,-20.78125 z m 24.53125,-3.90625 q -2.03125,-2.1875 -4.0625,-3.90625 l 1.875,-1.875 q 2.1875,1.71875 4.21875,4.0625 z m 5.625,-0.46875 q -2.5,-2.8125 -4.6875,-4.6875 l 1.875,-1.5625 q 2.5,1.875 4.6875,4.53125 z"
       style=""
       id="path1674" />
    <path
       d="m 235.55078,153.87891 h -3.59375 v -1.71875 h -17.34375 v 2.5 h -3.59375 v -24.375 h 24.53125 z m -20.9375,-20.15625 v 15 h 17.34375 v -15 z"
       style=""
       id="path1676" />
    <path
       d="m 275.86328,137.47266 q -1.09375,10.15625 -5.625,14.6875 -4.53125,4.53125 -11.875,7.1875 l -2.03125,-2.96875 q 7.1875,-2.34375 11.25,-6.40625 4.375,-4.375 5,-14.84375 l 3.28125,1.09375 q 1.40625,0.46875 0,1.25 z m -13.28125,5.625 q -1.875,-4.21875 -3.75,-7.03125 l 2.96875,-1.5625 q 2.34375,2.96875 4.0625,7.03125 z m -7.96875,2.34375 q -1.875,-4.375 -3.90625,-7.34375 l 3.125,-1.5625 q 2.1875,2.96875 3.90625,7.1875 z"
       style=""
       id="path1678" />
    <path
       d="m 314.45703,135.12891 q -2.96875,17.03125 -19.53125,24.375 l -2.8125,-2.96875 q 15.3125,-6.25 18.4375,-21.5625 h -12.5 q -3.59375,5.9375 -7.5,9.53125 l -3.125,-2.03125 q 8.125,-7.34375 10.46875,-17.1875 l 3.59375,1.25 q 0.9375,0.46875 -0.3125,0.9375 -0.625,2.03125 -1.71875,4.0625 h 11.25 l 1.40625,-0.78125 2.8125,2.8125 q 1.09375,1.09375 -0.46875,1.5625 z"
       style=""
       id="path1680" />
  </g>
  <g
     aria-label="母音ブロック"
     transform="matrix(1.4002413,0,0,1.4002414,-182.56346,-182.09656)"
     style="font-style:normal;font-weight:normal;font-size:40px;line-height:1.25;font-family:sans-serif;letter-spacing:0px;word-spacing:0px;fill:#000000;fill-opacity:1;stroke:none"
     id="flowRoot1597">
    <path
       d="m 361.5332,473.16992 -0.46875,-2.96875 h 3.90625 q 1.71875,0 1.875,-2.34375 h -19.21875 l -0.46875,2.96875 -3.28125,-0.3125 2.1875,-15.3125 h -5 v -2.96875 h 5.3125 l 0.9375,-12.1875 h 23.90625 l -0.3125,12.1875 h 5.9375 v 2.96875 h -5.78125 l -0.625,9.6875 h 5.3125 v 2.96875 h -5.625 q -0.46875,5.3125 -4.53125,5.3125 z m -13.4375,-8.28125 h 19.0625 l 0.625,-9.6875 h -18.4375 z m 12.1875,-1.40625 q -2.65625,-2.34375 -6.25,-4.375 l 2.03125,-2.96875 q 3.28125,1.25 6.40625,4.0625 z m 7.65625,-11.25 0.15625,-9.21875 h -17.65625 l -0.78125,9.21875 z m -7.03125,-1.25 q -2.5,-2.5 -5.9375,-4.0625 l 1.875,-2.96875 q 4.21875,1.875 6.25,4.0625 z"
       style=""
       id="path1642" />
    <path
       d="m 406.68945,468.63867 v -3.75 H 390.9082 v 3.75 z m -11.5625,-18.59375 h 7.34375 l 2.03125,-5.78125 h -11.5625 z m 21.25,0 v 2.96875 H 380.9082 v -2.96875 h 11.09375 l -2.5,-5.78125 h -5 v -2.96875 h 12.65625 v -3.75 h 2.96875 q 1.25,0.15625 0.15625,0.9375 v 2.8125 h 12.8125 v 2.96875 h -5 l -2.65625,5.78125 z m -9.6875,11.875 v -3.28125 H 390.9082 v 3.28125 z m 3.125,10.9375 h -3.125 v -1.25 H 390.9082 v 2.03125 h -3.125 v -17.96875 h 22.03125 z"
       style=""
       id="path1644" />
    <path
       d="m 425.5957,446.91992 v -3.4375 h 23.59375 l 2.34375,-0.46875 1.71875,1.5625 q -0.625,20.625 -21.875,26.5625 l -2.8125,-3.4375 q 19.53125,-4.375 20.46875,-20.78125 z m 24.53125,-3.90625 q -2.03125,-2.1875 -4.0625,-3.90625 l 1.875,-1.875 q 2.1875,1.71875 4.21875,4.0625 z m 5.625,-0.46875 q -2.5,-2.8125 -4.6875,-4.6875 l 1.875,-1.5625 q 2.5,1.875 4.6875,4.53125 z"
       style=""
       id="path1646" />
    <path
       d="m 491.37695,467.54492 h -3.59375 v -1.71875 h -17.34375 v 2.5 h -3.59375 v -24.375 h 24.53125 z m -20.9375,-20.15625 v 15 h 17.34375 v -15 z"
       style=""
       id="path1648" />
    <path
       d="m 531.68945,451.13867 q -1.09375,10.15625 -5.625,14.6875 -4.53125,4.53125 -11.875,7.1875 l -2.03125,-2.96875 q 7.1875,-2.34375 11.25,-6.40625 4.375,-4.375 5,-14.84375 l 3.28125,1.09375 q 1.40625,0.46875 0,1.25 z m -13.28125,5.625 q -1.875,-4.21875 -3.75,-7.03125 l 2.96875,-1.5625 q 2.34375,2.96875 4.0625,7.03125 z m -7.96875,2.34375 q -1.875,-4.375 -3.90625,-7.34375 l 3.125,-1.5625 q 2.1875,2.96875 3.90625,7.1875 z"
       style=""
       id="path1650" />
    <path
       d="m 570.2832,448.79492 q -2.96875,17.03125 -19.53125,24.375 l -2.8125,-2.96875 q 15.3125,-6.25 18.4375,-21.5625 h -12.5 q -3.59375,5.9375 -7.5,9.53125 l -3.125,-2.03125 q 8.125,-7.34375 10.46875,-17.1875 l 3.59375,1.25 q 0.9375,0.46875 -0.3125,0.9375 -0.625,2.03125 -1.71875,4.0625 h 11.25 l 1.40625,-0.78125 2.8125,2.8125 q 1.09375,1.09375 -0.46875,1.5625 z"
       style=""
       id="path1652" />
  </g>
  <g
     aria-label="*長音
ブロック"
     transform="matrix(1.1132404,0,0,1.101454,-68.77809,-13.624463)"
     style="font-style:normal;font-weight:normal;font-size:40px;line-height:1.25;font-family:sans-serif;letter-spacing:0px;word-spacing:0px;fill:#000000;fill-opacity:1;stroke:none"
     id="flowRoot1605">
    <path
       d="m 491.75781,119.21094 6.40625,-4.0625 1.5625,2.8125 -6.71875,3.4375 6.71875,3.4375 -1.5625,2.8125 -6.40625,-4.0625 0.3125,7.96875 h -1.5625 -1.5625 l 0.3125,-7.96875 -6.40625,4.0625 -1.5625,-2.8125 6.71875,-3.4375 -6.71875,-3.4375 1.5625,-2.8125 6.40625,4.0625 -0.3125,-7.5 h 3.125 z"
       style=""
       id="path1655" />
    <path
       d="m 536.44531,138.74219 q -13.4375,-3.125 -17.8125,-14.21875 h -4.84375 v 10.3125 l 8.75,-1.5625 0.625,2.65625 -16.09375,3.28125 q -0.15625,1.25 -0.78125,0.625 l -1.09375,-3.75 5.46875,-0.78125 v -10.78125 h -7.5 v -2.96875 h 7.5 v -16.875 h 22.5 v 2.96875 h -19.375 v 2.34375 h 17.1875 v 2.96875 h -17.1875 v 2.65625 h 17.5 v 2.96875 h -17.5 v 2.96875 h 24.0625 v 2.96875 h -16.09375 q 0.9375,2.03125 3.4375,4.53125 l 5,-3.90625 2.65625,1.875 q 1.09375,0.78125 -0.46875,0.78125 l -4.84375,3.28125 q 3.125,2.1875 10.78125,4.21875 z"
       style=""
       id="path1657" />
    <path
       d="m 568.32031,134.21094 v -3.75 h -15.78125 v 3.75 z m -11.5625,-18.59375 h 7.34375 l 2.03125,-5.78125 h -11.5625 z m 21.25,0 v 2.96875 h -35.46875 v -2.96875 h 11.09375 l -2.5,-5.78125 h -5 v -2.96875 h 12.65625 v -3.75 h 2.96875 q 1.25,0.15625 0.15625,0.9375 v 2.8125 h 12.8125 v 2.96875 h -5 l -2.65625,5.78125 z m -9.6875,11.875 v -3.28125 h -15.78125 v 3.28125 z m 3.125,10.9375 h -3.125 v -1.25 h -15.78125 v 2.03125 h -3.125 v -17.96875 h 22.03125 z"
       style=""
       id="path1659" />
    <path
       d="m 487.22656,162.49219 v -3.4375 h 23.59375 l 2.34375,-0.46875 1.71875,1.5625 q -0.625,20.625 -21.875,26.5625 l -2.8125,-3.4375 q 19.53125,-4.375 20.46875,-20.78125 z m 24.53125,-3.90625 q -2.03125,-2.1875 -4.0625,-3.90625 l 1.875,-1.875 q 2.1875,1.71875 4.21875,4.0625 z m 5.625,-0.46875 q -2.5,-2.8125 -4.6875,-4.6875 l 1.875,-1.5625 q 2.5,1.875 4.6875,4.53125 z"
       style=""
       id="path1661" />
    <path
       d="m 553.00781,183.11719 h -3.59375 v -1.71875 h -17.34375 v 2.5 h -3.59375 v -24.375 h 24.53125 z m -20.9375,-20.15625 v 15 h 17.34375 v -15 z"
       style=""
       id="path1663" />
    <path
       d="m 593.32031,166.71094 q -1.09375,10.15625 -5.625,14.6875 -4.53125,4.53125 -11.875,7.1875 l -2.03125,-2.96875 q 7.1875,-2.34375 11.25,-6.40625 4.375,-4.375 5,-14.84375 l 3.28125,1.09375 q 1.40625,0.46875 0,1.25 z m -13.28125,5.625 q -1.875,-4.21875 -3.75,-7.03125 l 2.96875,-1.5625 q 2.34375,2.96875 4.0625,7.03125 z m -7.96875,2.34375 q -1.875,-4.375 -3.90625,-7.34375 l 3.125,-1.5625 q 2.1875,2.96875 3.90625,7.1875 z"
       style=""
       id="path1665" />
    <path
       d="m 631.91406,164.36719 q -2.96875,17.03125 -19.53125,24.375 l -2.8125,-2.96875 q 15.3125,-6.25 18.4375,-21.5625 h -12.5 q -3.59375,5.9375 -7.5,9.53125 l -3.125,-2.03125 q 8.125,-7.34375 10.46875,-17.1875 l 3.59375,1.25 q 0.9375,0.46875 -0.3125,0.9375 -0.625,2.03125 -1.71875,4.0625 h 11.25 l 1.40625,-0.78125 2.8125,2.8125 q 1.09375,1.09375 -0.46875,1.5625 z"
       style=""
       id="path1667" />
  </g>
  <g
     aria-label="*拗音類
ブロック"
     transform="matrix(1.1014514,0,0,1.1014514,-4.3424737,-50.921635)"
     style="font-style:normal;font-weight:normal;font-size:40px;line-height:1.25;font-family:sans-serif;letter-spacing:0px;word-spacing:0px;fill:#000000;fill-opacity:1;stroke:none"
     id="flowRoot1613">
    <path
       d="m 77.246094,518.15234 6.40625,-4.0625 1.5625,2.8125 -6.71875,3.4375 6.71875,3.4375 -1.5625,2.8125 -6.40625,-4.0625 0.3125,7.96875 h -1.5625 -1.5625 l 0.3125,-7.96875 -6.40625,4.0625 -1.5625,-2.8125 6.71875,-3.4375 -6.71875,-3.4375 1.5625,-2.8125 6.40625,4.0625 -0.3125,-7.5 h 3.125 z"
       style=""
       id="path1625" />
    <path
       d="m 113.33984,514.08984 h -3.125 q -3.28125,7.8125 -7.65625,15.625 l 5.625,-1.09375 -1.71875,-4.0625 2.5,-1.25 q 1.5625,2.96875 2.5,5.78125 1.875,-3.125 1.875,-9.0625 z m 6.5625,0 h -3.4375 v 6.875 q 0,11.5625 -8.90625,17.03125 l -1.71875,-3.28125 q 2.65625,-1.40625 3.59375,-2.65625 l -0.3125,-0.78125 -10.468746,2.1875 q -0.3125,1.40625 -0.9375,0.46875 l -0.78125,-3.28125 2.5,-0.46875 4.374996,-8.59375 q -3.125,-2.65625 -6.718746,-5 l 1.5625,-2.65625 1.562496,1.09375 q 2.65625,-5.78125 4.0625,-11.40625 l 3.28125,1.25 q 0.625,0.625 -0.46875,0.78125 -1.5625,5.3125 -4.53125,11.09375 l 2.5,1.875 q 1.5625,-3.4375 3.125,-8.28125 l 2.03125,0.78125 h 3.125 v -8.4375 h 2.96875 q 1.25,0 0.15625,0.9375 v 7.5 h 6.5625 l -0.625,20.78125 q -0.15625,5.46875 -3.28125,5.46875 h -3.75 l -0.3125,-2.96875 h 2.65625 q 1.875,0 1.875,-2.96875 z m -23.749996,-1.40625 v 8.75 l 3.59375,-0.9375 0.312496,2.8125 -3.906246,1.25 v 10.9375 q 0,2.5 -2.5,2.5 h -2.8125 l -0.625,-2.96875 h 2.1875 q 0.625,0 0.625,-0.625 v -9.21875 l -2.96875,0.78125 q -0.625,1.71875 -1.25,0.15625 l -0.9375,-3.28125 5.15625,-0.9375 v -9.21875 h -4.375 v -2.96875 h 4.375 v -7.5 h 2.96875 q 1.25,0.15625 0.15625,0.9375 v 6.5625 h 3.906246 v 2.96875 z"
       style=""
       id="path1627" />
    <path
       d="m 153.80859,533.15234 v -3.75 h -15.78125 v 3.75 z m -11.5625,-18.59375 h 7.34375 l 2.03125,-5.78125 h -11.5625 z m 21.25,0 v 2.96875 h -35.46875 v -2.96875 h 11.09375 l -2.5,-5.78125 h -5 v -2.96875 h 12.65625 v -3.75 h 2.96875 q 1.25,0.15625 0.15625,0.9375 v 2.8125 h 12.8125 v 2.96875 h -5 l -2.65625,5.78125 z m -9.6875,11.875 v -3.28125 h -15.78125 v 3.28125 z m 3.125,10.9375 h -3.125 v -1.25 h -15.78125 v 2.03125 h -3.125 v -17.96875 h 22.03125 z"
       style=""
       id="path1629" />
    <path
       d="m 182.71484,535.33984 q -2.34375,-2.5 -5,-4.21875 -1.40625,4.53125 -7.03125,7.34375 l -1.875,-2.8125 q 6.09375,-2.34375 6.71875,-8.59375 h -6.5625 v -2.5 h 6.71875 v -3.59375 h 2.5 q 1.25,0.15625 0.15625,0.9375 v 2.65625 h 7.1875 v 2.5 h -7.1875 l -0.15625,1.40625 q 3.4375,1.09375 6.5625,4.21875 z m 1.09375,-14.84375 q -2.34375,-2.96875 -5,-4.53125 v 3.59375 h -2.65625 v -3.125 q -2.34375,3.4375 -6.40625,5.625 l -1.5625,-2.65625 q 4.0625,-2.03125 6.875,-5.625 h -5.9375 v -2.5 h 7.03125 v -8.75 h 2.5 q 1.25,0.15625 0.15625,0.9375 v 7.8125 h 6.875 v 2.5 h -5.9375 q 3.4375,1.25 6.09375,4.21875 z m 19.0625,17.96875 q -4.0625,-1.25 -7.34375,-4.0625 l 2.03125,-2.1875 q 3.125,2.03125 6.71875,3.28125 z m -9.21875,-4.0625 q 0.3125,0.625 -0.78125,0.625 -3.90625,2.65625 -7.8125,3.75 l -1.5625,-3.125 q 4.53125,-1.25 7.96875,-3.59375 z m -1.5625,-23.4375 0.9375,-4.0625 h -6.875 v -2.96875 h 17.5 v 2.96875 h -7.1875 l -1.5625,4.0625 h 7.1875 v 20.78125 h -14.375 v -20.78125 z m 7.34375,5.9375 v -3.4375 h -9.0625 v 3.4375 z m -9.0625,6.09375 h 9.0625 v -3.59375 h -9.0625 z m 0,6.25 h 9.0625 v -3.75 h -9.0625 z m -18.59375,-25 q 1.875,1.5625 2.8125,4.0625 l -2.8125,1.71875 q -1.09375,-2.03125 -2.65625,-4.0625 z m 7.96875,4.375 q 1.5625,-2.03125 2.8125,-4.53125 l 2.65625,1.25 q 1.09375,0.625 -0.3125,0.78125 -1.09375,2.1875 -2.5,4.21875 z"
       style=""
       id="path1631" />
    <path
       d="m 72.714844,561.43359 v -3.4375 h 23.59375 l 2.34375,-0.46875 1.718746,1.5625 q -0.624996,20.625 -21.874996,26.5625 l -2.8125,-3.4375 q 19.53125,-4.375 20.46875,-20.78125 z m 24.53125,-3.90625 q -2.03125,-2.1875 -4.0625,-3.90625 l 1.875,-1.875 q 2.1875,1.71875 4.21875,4.0625 z m 5.624996,-0.46875 q -2.5,-2.8125 -4.687496,-4.6875 l 1.874996,-1.5625 q 2.5,1.875 4.6875,4.53125 z"
       style=""
       id="path1633" />
    <path
       d="m 138.49609,582.05859 h -3.59375 v -1.71875 h -17.34375 v 2.5 h -3.59375 v -24.375 h 24.53125 z m -20.9375,-20.15625 v 15 h 17.34375 v -15 z"
       style=""
       id="path1635" />
    <path
       d="m 178.80859,565.65234 q -1.09375,10.15625 -5.625,14.6875 -4.53125,4.53125 -11.875,7.1875 l -2.03125,-2.96875 q 7.1875,-2.34375 11.25,-6.40625 4.375,-4.375 5,-14.84375 l 3.28125,1.09375 q 1.40625,0.46875 0,1.25 z m -13.28125,5.625 q -1.875,-4.21875 -3.75,-7.03125 l 2.96875,-1.5625 q 2.34375,2.96875 4.0625,7.03125 z m -7.96875,2.34375 q -1.875,-4.375 -3.90625,-7.34375 l 3.125,-1.5625 q 2.1875,2.96875 3.90625,7.1875 z"
       style=""
       id="path1637" />
    <path
       d="m 217.40234,563.30859 q -2.96875,17.03125 -19.53125,24.375 l -2.8125,-2.96875 q 15.3125,-6.25 18.4375,-21.5625 h -12.5 q -3.59375,5.9375 -7.5,9.53125 l -3.125,-2.03125 q 8.125,-7.34375 10.46875,-17.1875 l 3.59375,1.25 q 0.9375,0.46875 -0.3125,0.9375 -0.625,2.03125 -1.71875,4.0625 h 11.25 l 1.40625,-0.78125 2.8125,2.8125 q 1.09375,1.09375 -0.46875,1.5625 z"
       style=""
       id="path1639" />
  </g>
</svg>
