<?xml version="1.0" encoding="UTF-8" standalone="no"?>
<svg xmlns="http://www.w3.org/2000/svg" width="700" height="700" viewBox="0 0 700 700">
  <g id="outLine">
    <path d="M50,50 l0,600 l600,0 l0,-600 z" fill="none" stroke="navy" stroke-opacity="0.6" stroke-width="0.3em" stroke-dasharray="10 20 15 30"/>
    <path d="M350,50 l0,600 m-300,-300 l600,0" fill="none" stroke="navy" stroke-opacity="0.3" stroke-width="0.3em" stroke-dasharray="5 10"/>
  </g>
  <g id="consonantsBlock">
    <path d="M50,50 l400,0 l0,200 l-200,200 l-200,0 z" fill="none" stroke="navy" stroke-opacity="0.6" stroke-width="0.3em" stroke-dasharray="10 20 15 30"/>
  </g>
  <g id="bowelsBlock">
    <path d="M50,50 m400,200 l200,0 l0,400 l-400,0 l0,-200 z" fill="none" stroke="navy" stroke-opacity="0.6" stroke-width="0.3em" stroke-dasharray="10 20 15 30"/>
  </g>
  <g id="diphthongsBlock">
    <path d="M50,50 m400,0 l0,200 l200,0 l0,-200 z" fill="none" stroke="navy" stroke-opacity="0.6" stroke-width="0.3em" stroke-dasharray="10 20 15 30"/>
    <path d="M150,450 l0,200 m-100,-100 l200,0" fill="none" stroke="navy" stroke-opacity="0.3" stroke-width="0.3em" stroke-dasharray="5 10"/>
  </g>
  <g id="longVowsBlock">
    <path d="M50,50 m0,400 l0,200 l200,0 l0,-200 z" fill="none" stroke="navy" stroke-opacity="0.6" stroke-width="0.3em" stroke-dasharray="10 20 15 30"/>
    <path d="M550,50 l0,200 m-100,-100 l200,0" fill="none" stroke="navy" stroke-opacity="0.3" stroke-width="0.3em" stroke-dasharray="5 10"/>
  </g>
  <g id="strokePoints">
    <circle cx="50" cy="350" r="0.6em" fill="black"/>
    <circle cx="650" cy="350" r="0.6em" fill="black"/>
    <circle cx="150" cy="450" r="0.6em" fill="black"/>
    <circle cx="550" cy="250" r="0.6em" fill="black"/>
  </g>
</svg>